<svg width="151" height="32" viewBox="0 0 151 32" fill="none" xmlns="http://www.w3.org/2000/svg">
<path d="M0 15.3545L2.73285 27.0962H6.37666L3.6438 15.3545H0Z" fill="#ED1A3A"/>
<path d="M7.28761 0L10.0205 11.7417H13.6643L10.9314 0H7.28761Z" fill="#ED1A3A"/>
<path d="M1.8219 0L8.19856 27.0962H11.8424L5.46571 0H1.8219Z" fill="#ED1A3A"/>
<path d="M16.9564 22.4496H20.5195C20.5195 23.7662 21.8738 24.2678 25.8536 24.2678C29.7083 24.2678 30.3334 24.017 30.3334 23.0557C30.3334 22.1153 29.75 22.0526 25.4369 21.7809C20.0402 21.4674 17.394 21.0495 17.394 18.082C17.394 14.8637 21.1446 14.2576 25.5202 14.2576C30.1459 14.2576 33.5005 14.8637 33.5005 18.2491H29.9167C29.9167 17.2251 28.6248 16.9744 25.3118 16.9744C21.9363 16.9744 20.9779 17.2251 20.9779 17.9357C20.9779 18.7089 21.6238 18.8343 25.8536 19.1478C30.646 19.503 33.9173 19.6284 33.9173 22.9094C33.9173 26.3784 30.7918 26.9845 26.0619 26.9845C21.3321 26.9845 16.9564 26.3784 16.9564 22.4496Z" fill="black"/>
<path d="M45.9845 14.2576C49.2558 14.2576 52.3188 15.4279 52.3604 19.9628L52.3188 26.7755H48.7349V21.3211C48.7349 18.7089 47.8598 17.3505 44.9218 17.3505C42.5256 17.3505 39.9419 18.5835 38.8376 19.8792V26.7755H35.2746V10.0571H38.8376V16.6191C40.5879 15.2398 43.0049 14.2576 45.9845 14.2576Z" fill="black"/>
<path d="M75.3099 14.2576C78.0603 14.2576 80.5607 15.4279 80.6024 19.8792L80.5607 26.7755H76.9977V21.3211C76.9977 18.7089 76.5601 17.3505 74.0181 17.3505C72.1428 17.3505 70.3092 18.2491 69.2257 19.2313C69.2465 19.4403 69.2466 19.6493 69.2466 19.8792L69.2049 26.7755H65.6419V21.3211C65.6419 18.7089 65.2043 17.3505 62.6622 17.3505C60.5994 17.3505 58.5991 18.4163 57.5782 19.5239V26.7755H54.0151V14.4666H57.5782V16.4728C58.9117 15.407 60.912 14.2576 63.9541 14.2576C65.8085 14.2576 67.5588 14.801 68.4964 16.5146C70.08 15.3234 72.2678 14.2576 75.3099 14.2576Z" fill="black"/>
<path d="M94.3834 14.4666H98.3215L90.0286 32H86.0905L88.57 26.7755H86.7364L80.3813 14.4666H84.3402L89.591 24.623L94.3834 14.4666Z" fill="black"/>
<path d="M106.22 14.2576C111.346 14.2576 114.263 15.9086 114.305 20.5688V26.7755H110.721V25.25C108.554 26.3158 106.158 26.9845 103.261 26.9845C99.8233 26.9845 97.6772 25.8769 97.6772 23.0975C97.6772 19.9001 101.178 18.897 105.074 18.897C107.179 18.897 109.116 19.2313 110.721 19.7747C110.721 17.4341 107.72 17.246 106.053 17.246C104.449 17.246 102.49 17.3923 99.9692 18.1447L98.6982 15.5324C101.199 14.7174 103.657 14.2576 106.22 14.2576ZM110.721 22.9512V21.9899C109.471 21.5928 107.783 21.2376 105.512 21.2376C102.845 21.2376 101.24 21.6973 101.24 22.9512C101.24 24.2469 102.428 24.3513 104.282 24.3513C106.22 24.3513 108.887 23.7453 110.721 22.9512Z" fill="black"/>
<path d="M134.561 14.4666L126.602 19.503L134.561 26.7755H129.602L123.726 21.4047L119.538 23.9334V26.7755H115.975V10.0571H119.538V20.0046L128.477 14.4666H134.561Z" fill="black"/>
<path d="M134.039 22.4496H137.602C137.602 23.7662 138.957 24.2678 142.936 24.2678C146.791 24.2678 147.416 24.017 147.416 23.0557C147.416 22.1153 146.833 22.0526 142.52 21.7809C137.123 21.4674 134.477 21.0495 134.477 18.082C134.477 14.8637 138.227 14.2576 142.603 14.2576C147.229 14.2576 150.583 14.8637 150.583 18.2491H146.999C146.999 17.2251 145.708 16.9744 142.395 16.9744C139.019 16.9744 138.061 17.2251 138.061 17.9357C138.061 18.7089 138.707 18.8343 142.936 19.1478C147.729 19.503 151 19.6284 151 22.9094C151 26.3784 147.875 26.9845 143.145 26.9845C138.415 26.9845 134.039 26.3784 134.039 22.4496Z" fill="black"/>
</svg>
